<svg xmlns="http://www.w3.org/2000/svg" viewBox="0 0 400 400">
  <defs>
    <linearGradient id="card" x1="0" y1="0" x2="1" y2="1">
      <stop offset="0%" stop-color="#52525b"/>
      <stop offset="100%" stop-color="#27272a"/>
    </linearGradient>
    <clipPath id="frame">
      <rect width="400" height="400" rx="36"/>
    </clipPath>
  </defs>
  <rect width="400" height="400" rx="36" fill="url(#card)"/>

  <g clip-path="url(#frame)">
    <!-- shoulders / torso, flush to bottom edge -->
    <path d="M0 400 L0 322 C90 268 310 268 400 322 L400 400 Z" fill="#0c0c0d"/>

    <!-- neck -->
    <rect x="176" y="252" width="48" height="48" fill="#d4d4d8"/>

    <!-- ears -->
    <circle cx="104" cy="212" r="17" fill="#d4d4d8"/>
    <circle cx="296" cy="212" r="17" fill="#d4d4d8"/>

    <!-- face -->
    <ellipse cx="200" cy="212" rx="100" ry="106" fill="#d4d4d8"/>

    <!-- curly hair mass -->
    <path d="M84 196
             C68 96 132 30 200 30
             C268 30 332 96 316 196
             C316 150 292 140 280 156
             C286 118 250 96 228 108
             C224 84 176 84 172 108
             C150 96 114 118 120 156
             C108 140 84 150 84 196 Z" fill="#0c0c0d"/>
    <circle cx="96" cy="150" r="24" fill="#0c0c0d"/>
    <circle cx="128" cy="100" r="26" fill="#0c0c0d"/>
    <circle cx="172" cy="70" r="26" fill="#0c0c0d"/>
    <circle cx="228" cy="70" r="26" fill="#0c0c0d"/>
    <circle cx="272" cy="100" r="26" fill="#0c0c0d"/>
    <circle cx="304" cy="150" r="24" fill="#0c0c0d"/>
    <circle cx="112" cy="188" r="18" fill="#0c0c0d"/>
    <circle cx="288" cy="188" r="18" fill="#0c0c0d"/>

    <!-- raised eyebrow (right) -->
    <path d="M226 176 q22 -14 42 -4" fill="none" stroke="#0c0c0d" stroke-width="7" stroke-linecap="round"/>
    <!-- flat brow (left) -->
    <path d="M132 182 q20 -6 40 0" fill="none" stroke="#0c0c0d" stroke-width="7" stroke-linecap="round"/>

    <!-- eyes, half-lidded -->
    <path d="M140 208 q18 8 36 0" fill="none" stroke="#0c0c0d" stroke-width="7" stroke-linecap="round"/>
    <path d="M224 208 q18 8 36 0" fill="none" stroke="#0c0c0d" stroke-width="7" stroke-linecap="round"/>

    <!-- smirk -->
    <path d="M168 254 q34 18 62 -2" fill="none" stroke="#0c0c0d" stroke-width="7" stroke-linecap="round"/>
  </g>
</svg>
